
        <svg xmlns="http://www.w3.org/2000/svg" xmlns:xlink="http://www.w3.org/1999/xlink" version="1.1" width="3162.301547173627" 
        height="1051.6114829398787" viewBox="0 0 3162.301547173627 1051.6114829398787">
			
			<g transform="scale(8.115077358681363) translate(10, 10)">
				<defs id="SvgjsDefs1655"><linearGradient id="SvgjsLinearGradient1662"><stop id="SvgjsStop1663" stop-color="#8f5e25" offset="0"></stop><stop id="SvgjsStop1664" stop-color="#fbf4a1" offset="0.5"></stop><stop id="SvgjsStop1665" stop-color="#8f5e25" offset="1"></stop></linearGradient><linearGradient id="SvgjsLinearGradient1666"><stop id="SvgjsStop1667" stop-color="#8f5e25" offset="0"></stop><stop id="SvgjsStop1668" stop-color="#fbf4a1" offset="0.5"></stop><stop id="SvgjsStop1669" stop-color="#8f5e25" offset="1"></stop></linearGradient><linearGradient id="SvgjsLinearGradient1670"><stop id="SvgjsStop1671" stop-color="#8f5e25" offset="0"></stop><stop id="SvgjsStop1672" stop-color="#fbf4a1" offset="0.5"></stop><stop id="SvgjsStop1673" stop-color="#8f5e25" offset="1"></stop></linearGradient></defs><g id="SvgjsG1656" featureKey="symbolFeature-0" transform="matrix(1.137057894918562,0,0,1.137057894918562,-12.694113835717154,-2.0592144111787163)" fill="url(#SvgjsLinearGradient1662)"><path xmlns="http://www.w3.org/2000/svg" fill="url(#SvgjsLinearGradient1662)" d="M88.122,98.189H11.164v-3.372h76.958V98.189z M49.512,2.119c-1.683,7.208-4.469,13.836-7.76,20.217  c-2.393,4.643-4.72,9.324-6.734,14.208c-1.654,4.014-2.218,8.227-1.459,12.61c1.363,7.889,7.148,14.105,13.926,15.036  c7.179,0.981,13.903-3.211,16.941-10.654c2.373-5.816,2.059-11.611-0.317-17.326c-2.123-5.104-4.616-9.975-7.085-14.86  c-2.3-4.553-4.397-9.216-5.891-14.217c-0.517-1.723-0.974-3.462-1.5-5.322C49.559,1.997,49.529,2.057,49.512,2.119z M69.638,67.474  c-2.861,1.725-5.751,4.141-7.914,6.771c-0.556,0.64-1.012,1.366-1.476,2.011c-0.44,0.674-0.928,1.257-1.244,1.944  c-0.669,1.324-1.335,2.441-1.713,3.488c-0.764,2.095-1.18,3.359-1.18,3.359s1.046-0.868,2.677-2.224  c0.8-0.659,1.896-1.271,2.963-1.991c0.515-0.38,1.18-0.626,1.784-0.947c0.625-0.291,1.216-0.64,1.878-0.888  c2.615-1.064,5.411-1.678,7.811-2.024c2.455-0.249,4.478-0.388,5.735-0.544c2.465-0.418,4.717-1.161,6.5-2.185  c1.771-1.025,3.04-2.34,3.332-3.977c0.292-1.632-0.845-3.359-3.012-4.526c-2.142-1.174-5.349-1.77-8.807-1.184  C75.249,64.787,72.508,65.852,69.638,67.474z M27.24,81.576c2.204-0.155,4.707-0.153,7.098,0.173  c2.437,0.247,4.603,1.063,6.277,1.789c0.786,0.401,1.409,0.812,1.875,1.076c0.461,0.279,0.72,0.434,0.72,0.434  s-0.113-0.273-0.315-0.762c-0.219-0.485-0.507-1.232-0.964-2.104c-0.988-1.644-2.612-3.993-4.954-5.874  c-4.574-4.019-11.175-6.378-14.031-6.563c-5.846-0.418-10.304,2.869-9.809,6.176c0.483,3.299,4.417,5.549,8.917,5.881  C23.183,81.91,25.059,81.687,27.24,81.576z M26.03,62.12c1.376,0.222,2.615,0.622,3.56,0.975c0.904,0.394,1.508,0.696,1.508,0.696  s-0.077-0.147-0.206-0.404c-0.142-0.253-0.334-0.654-0.62-1.099c-0.577-0.87-1.478-2.08-2.648-3.15c-2.3-2.241-5.504-4-6.999-4.355  c-3.029-0.723-5.724,0.571-5.84,2.442c-0.116,1.855,1.783,3.537,4.268,4.143C20.3,61.665,23.326,61.598,26.03,62.12z"></path></g><g id="SvgjsG1657" featureKey="nameFeature-0" transform="matrix(1.0206014745461234,0,0,1.0206014745461234,103.50935390132562,11.161402408301075)" fill="url(#SvgjsLinearGradient1666)"><path d="M25.32 40 l-20.92 0 l0 -29.84 l4.36 0 l0 25.48 l16.56 0 l0 4.36 z M34.8 40 l-4.28 0 l0 -29.84 l4.28 0 l0 29.84 z M47.96 28.04 l0 11.96 l-4.36 0 l0 -29.84 l21 0 l0 4.4 l-16.64 0 l0 9.04 q1.24 -0.72 2.76 -0.96 q1.12 -0.2 2.88 -0.2 l6.52 0 l0 4.44 l-6.52 0 q-1.64 0 -2.88 0.2 q-1.52 0.28 -2.76 0.96 z M75.76 28.04 l0 7.6 l18.4 0 l0 4.36 l-22.76 0 l0 -29.84 l21 0 l0 4.4 l-16.64 0 l0 9.04 q1.24 -0.72 2.76 -0.96 q1.12 -0.2 2.88 -0.2 l6.52 0 l0 4.44 l-6.52 0 q-1.64 0 -2.88 0.2 q-1.52 0.28 -2.76 0.96 z M134 10.16 l4.6 0 l-9.52 29.84 l-4.72 0 l-5.76 -17.64 l-5.6 17.64 l-4.72 0 l-10.12 -29.84 l4.48 0 l7.92 22.32 l5.6 -17.6 l-1.52 -4.72 l4.48 0 l7.52 22.32 z M153.72 13.32 l-1.64 -3.68 l4.8 0 l14.36 30.36 l-4.88 0 l-1.96 -4.36 l-9.08 0 q-2.56 0 -4.6 0.48 q-1.8 0.44 -3 1.16 q-1.08 0.64 -1.44 1.32 l-0.76 1.4 l-4.72 0 z M156.92000000000002 31.240000000000002 l5.52 0 l-6.52 -12.6 l-6.6 14.28 q0.88 -0.76 2.68 -1.2 q2.04 -0.48 4.92 -0.48 z M199.04 14.559999999999999 l-10.52 0 l0 25.44 l-4.24 0 l0 -25.44 l-10.64 0 l0 -4.4 l25.4 0 l0 4.4 z M209 28.04 l0 7.6 l18.4 0 l0 4.36 l-22.76 0 l0 -29.84 l21 0 l0 4.4 l-16.64 0 l0 9.04 q1.24 -0.72 2.76 -0.96 q1.12 -0.2 2.88 -0.2 l6.52 0 l0 4.44 l-6.52 0 q-1.64 0 -2.88 0.2 q-1.52 0.28 -2.76 0.96 z M238.76 14.52 l0 9.92 q1.24 -0.72 2.76 -0.96 q1.12 -0.2 2.88 -0.2 l5.68 0 q2.36 0 3.68 -1.08 q1.4 -1.16 1.4 -3.48 q0 -2.2 -1.48 -3.28 q-1.28 -0.92 -3.6 -0.92 l-11.32 0 z M251.52 35.28 l-3.64 -7.64 l-3.48 0 q-1.64 0 -2.88 0.2 q-1.52 0.28 -2.76 0.96 l0 11.2 l-4.36 0 l0 -29.84 l15.68 0 q2.76 0 4.88 1.04 t3.28 2.96 q1.24 2.04 1.24 4.8 q0 3.36 -1.8 5.52 t-5.08 3 l2.32 4.76 q1 1.48 1.56 2.08 q0.68 0.76 1.3 1.02 t1.62 0.26 l0.44 0 l0.96 -0.04 l0 4.44 q-2.32 0 -3.44 -0.16 q-1.88 -0.32 -3.2 -1.24 q-1.56 -1.12 -2.64 -3.32 z"></path></g><g id="SvgjsG1658" featureKey="nameFeature-1" transform="matrix(0.8940899601584141,0,0,0.8940899601584141,105.85418337084977,53.702847113818954)" fill="url(#SvgjsLinearGradient1670)"><path d="M29.96 14 l-2.8 3.28 q-1.64 -1.68 -3.92 -2.64 t-4.8 -0.96 q-3.28 0 -5.98 1.48 t-4.22 4.04 q-1.56 2.68 -1.56 5.96 q0 3.12 1.68 5.76 q1.6 2.48 4.3 3.94 t5.82 1.46 q2.88 0 5.36 -1.24 t4.12 -3.44 l2.68 3.64 q-2.28 2.56 -5.46 3.98 t-6.74 1.42 q-4.44 0 -8.16 -2.16 q-3.64 -2.08 -5.72 -5.72 q-2.16 -3.72 -2.16 -8.16 q0 -4.28 2.28 -7.88 q2.16 -3.44 5.86 -5.46 t7.94 -2.02 q3.32 0 6.32 1.28 q2.92 1.2 5.16 3.44 z M62.84 24.880000000000003 q0 -3.2 -1.64 -5.8 q-1.56 -2.52 -4.26 -3.96 t-5.86 -1.44 q-3.28 0 -5.98 1.48 t-4.22 4.04 q-1.56 2.68 -1.56 5.96 q0 3.12 1.68 5.76 q1.6 2.48 4.3 3.94 t5.84 1.46 t5.84 -1.52 t4.26 -4.08 q1.6 -2.68 1.6 -5.84 z M67.16 25.119999999999997 q0 4.32 -2.24 7.96 q-2.16 3.48 -5.86 5.54 t-7.98 2.06 q-4.44 0 -8.16 -2.16 q-3.64 -2.08 -5.72 -5.72 q-2.16 -3.72 -2.16 -8.16 q0 -4.28 2.28 -7.88 q2.16 -3.44 5.86 -5.46 t7.94 -2.02 q4.36 0 8.08 2.12 q3.64 2.08 5.76 5.64 q2.2 3.72 2.2 8.08 z M86.96000000000001 40.68 q-4.2 0 -7.22 -1.46 t-4.6 -4.22 t-1.58 -6.6 l0 -18.24 l4.32 0 l0 18.24 q0 3.84 2.36 5.88 t6.72 2.04 t6.72 -2.04 t2.36 -5.88 l0 -18.24 l4.32 0 l0 18.24 q0 3.84 -1.58 6.6 t-4.6 4.22 t-7.22 1.46 z M131.96 30.92 q0 2.92 -1.76 5.2 q-1.72 2.16 -4.74 3.36 t-6.82 1.2 q-3.48 0 -6.76 -1.62 t-5.52 -4.5 l3.12 -2.92 q3.88 4.68 9.16 4.68 q2.32 0 4.24 -0.56 q2.12 -0.64 3.28 -1.8 q1.32 -1.28 1.32 -3.04 q0 -2.12 -1.32 -3.2 q-1.12 -0.92 -3.32 -1.2 q-1.28 -0.16 -4.2 -0.16 q-5.36 0 -8.18 -1.96 t-2.82 -5.76 q0 -2.4 1.42 -4.56 t3.9 -3.44 q2.56 -1.36 5.68 -1.36 q3.52 0 6.36 1.08 q3.04 1.16 5.64 3.64 l-2.72 3.2 q-2.44 -1.96 -4.44 -2.74 t-4.84 -0.78 q-1.64 0 -3.06 0.68 t-2.26 1.82 t-0.84 2.42 q0 3.44 6.36 3.44 q5.08 0 8.04 1.04 q2.8 1 4 3.04 q1.08 1.8 1.08 4.8 z M142.72 28.04 l0 7.6 l18.4 0 l0 4.36 l-22.76 0 l0 -29.84 l21 0 l0 4.4 l-16.64 0 l0 9.04 q1.24 -0.72 2.76 -0.96 q1.12 -0.2 2.88 -0.2 l6.52 0 l0 4.44 l-6.52 0 q-1.64 0 -2.88 0.2 q-1.52 0.28 -2.76 0.96 z M189.04 40 l-20.92 0 l0 -29.84 l4.36 0 l0 25.48 l16.56 0 l0 4.36 z M215.16 40 l-20.92 0 l0 -29.84 l4.36 0 l0 25.48 l16.56 0 l0 4.36 z M224.64000000000001 40 l-4.28 0 l0 -29.84 l4.28 0 l0 29.84 z M234.32000000000002 14.36 l-3.48 -4.2 l5.64 0 l19.16 22.8 l0 -22.8 l4.4 0 l0 29.84 l-4.32 0 l-17.12 -20.52 l0 20.52 l-4.28 0 l0 -25.64 z M294.4 14 l-2.8 3.28 q-1.64 -1.68 -3.92 -2.64 t-4.8 -0.96 q-3.28 0 -5.98 1.48 t-4.22 4.04 q-1.56 2.68 -1.56 5.96 q0 3.12 1.68 5.76 q1.6 2.48 4.3 3.94 t5.82 1.46 q2.2 0 4.22 -0.76 t3.62 -2.12 l0 -5.44 l-3.84 0 l-1.88 -4.32 l10.04 0 l0 11.6 q-2.28 2.56 -5.46 3.98 t-6.74 1.42 q-4.44 0 -8.16 -2.16 q-3.64 -2.08 -5.72 -5.72 q-2.16 -3.72 -2.16 -8.16 q0 -4.28 2.28 -7.88 q2.16 -3.44 5.86 -5.46 t7.94 -2.02 q3.32 0 6.32 1.28 q2.92 1.2 5.16 3.44 z"></path></g>
			</g>
		</svg>
	